<svg xmlns="http://www.w3.org/2000/svg" width="30" height="30" style="enable-background:new 0 0 30 30" xml:space="preserve"><path d="M4.01 10.99a4.01 4.01 0 1 0 0 8.02 4.01 4.01 0 0 0 0-8.02zm0 6.239A2.23 2.23 0 0 1 1.782 15c0-1.229.999-2.228 2.228-2.228s2.228.999 2.228 2.228-1 2.229-2.228 2.229zM15 10.99a4.01 4.01 0 1 0 0 8.02 4.01 4.01 0 0 0 0-8.02zm0 6.239A2.23 2.23 0 0 1 12.772 15 2.23 2.23 0 0 1 15 12.772 2.23 2.23 0 0 1 17.229 15c0 1.229-1 2.229-2.229 2.229zM25.99 10.99a4.01 4.01 0 1 0 0 8.02 4.01 4.01 0 0 0 0-8.02zm0 6.239a2.23 2.23 0 0 1 0-4.457A2.23 2.23 0 0 1 28.218 15c0 1.229-1 2.229-2.228 2.229z"/></svg>