<svg xmlns="http://www.w3.org/2000/svg" width="288" height="288"><svg xmlns="http://www.w3.org/2000/svg" width="288" height="288" viewBox="0 0 64 64"><g fill="none" fill-rule="evenodd"><path fill="#ffa0cc" d="M44.803 51.154H19.314a5.003 5.003 0 0 1-5.005-5V19.038c0-9.793 7.947-17.731 17.75-17.731s17.75 7.938 17.75 17.73v27.115c0 2.762-2.241 5-5.006 5" class="colorF5903D svgShape"/><path fill="#f69" d="M32.059 2.615c-9.066 0-16.44 7.368-16.44 16.424v27.114a3.7 3.7 0 0 0 3.695 3.693h25.489a3.7 3.7 0 0 0 3.697-3.693V19.04c0-9.056-7.376-16.424-16.441-16.424m12.744 49.846H19.314c-3.481 0-6.314-2.83-6.314-6.308V19.04C13 8.54 21.55 0 32.059 0s19.059 8.54 19.059 19.039v27.114c0 3.479-2.833 6.308-6.315 6.308" class="color2E2E30 svgShape"/><path fill="#dca24c" d="M32.345 62.633a4.07 4.07 0 0 1-4.073-4.069v-7.41h8.146v7.41a4.07 4.07 0 0 1-4.073 4.069" class="colorF6EFD5 svgShape"/><path fill="#f69" d="M29.582 52.462v6.102c0 1.522 1.24 2.76 2.763 2.76a2.766 2.766 0 0 0 2.764-2.76v-6.102h-5.527Zm2.763 11.478a5.385 5.385 0 0 1-5.381-5.376v-7.41c0-.722.586-1.308 1.309-1.308h8.145c.723 0 1.309.586 1.309 1.308v7.41a5.386 5.386 0 0 1-5.382 5.376Z" class="color2E2E30 svgShape"/><path fill="#f69" d="M29.133 49.855h-6.569v-28.2a3.283 3.283 0 0 1 3.285-3.281 3.283 3.283 0 0 1 3.284 3.281v28.2ZM35.702 49.855h6.57v-28.2a3.283 3.283 0 0 0-3.286-3.281 3.283 3.283 0 0 0-3.284 3.281v28.2Z" class="colorC97636 svgShape"/><path fill="#020102" fill-opacity=".3" d="M29.643 55.072h5.404v-2.724h-5.404z" class="color010201 svgShape"/></g></svg></svg>